<svg width="40" height="38" viewBox="0 0 40 38" fill="none" xmlns="http://www.w3.org/2000/svg">
<rect x="0.5" y="0.5" width="39" height="37" rx="7.5" fill="white" stroke="#5932EA"/>
<path d="M25 25L20 22.82L15 25V12H25M25 10H15C14.4696 10 13.9609 10.2107 13.5858 10.5858C13.2107 10.9609 13 11.4696 13 12V28L20 25L27 28V12C27 10.89 26.1 10 25 10Z" fill="#5932EA"/>
<path d="M25 10H15C14.4696 10 13.9609 10.2107 13.5858 10.5858C13.2107 10.9609 13 11.4696 13 12V28L20 25L27 28V12C27 10.89 26.1 10 25 10Z" fill="#5932EA"/>
</svg>
